<svg width="207" height="42" viewBox="0 0 207 42" fill="none" xmlns="http://www.w3.org/2000/svg">
<path d="M36.1224 18.5596C34.9867 19.7183 34.4191 21.3299 34.5741 22.956L34.5474 22.929C34.7067 24.8426 34.026 26.7302 32.6868 28.0881C31.3476 29.4461 29.4862 30.1363 27.599 29.9748L27.6257 30.0018C25.3407 29.7861 23.1678 31.0464 22.1926 33.1529C21.2175 35.2593 21.6496 37.7596 23.273 39.4043C24.8965 41.049 27.3626 41.4849 29.439 40.4942C31.5155 39.5035 32.7564 37.2989 32.5417 34.9822L32.5698 35.0092C32.4105 33.0956 33.0912 31.208 34.4304 29.8501C35.7696 28.4921 37.631 27.8019 39.5182 27.9634L39.4901 27.9364C42.0013 28.1654 44.338 26.6127 45.1334 24.1866C45.9288 21.7605 44.9739 19.0982 42.8273 17.7571C40.6807 16.4159 37.9063 16.7482 36.1269 18.5596H36.1224Z" fill="#5454D4"/>
<path d="M25.2025 26.4623L25.1744 26.4353C26.779 26.5993 28.3715 26.0239 29.5124 24.8679C30.6532 23.7119 31.2219 22.0976 31.0614 20.4703L31.0895 20.4973C30.9302 18.5837 31.611 16.6962 32.9501 15.3382C34.2893 13.9803 36.1508 13.29 38.0379 13.4516L38.0098 13.4245C40.2949 13.6421 42.4692 12.3832 43.4458 10.2771C44.4224 8.17092 43.9916 5.66993 42.3687 4.02425C40.7457 2.37856 38.2793 1.94167 36.2022 2.93197C34.1252 3.92226 32.8837 6.12702 33.0983 8.44417L33.0716 8.41565C33.2315 10.3294 32.5509 12.2172 31.2116 13.5753C29.8723 14.9334 28.0105 15.6235 26.1232 15.4614L26.1499 15.4899C24.5452 15.326 22.9527 15.9014 21.8118 17.0573C20.671 18.2133 20.1023 19.8277 20.2628 21.455L20.2362 21.4279C20.395 23.3414 19.7141 25.2286 18.375 26.5864C17.0359 27.9443 15.1748 28.6347 13.2878 28.4737L13.3144 28.5007C11.0293 28.2831 8.855 29.542 7.87839 31.6482C6.90178 33.7543 7.33263 36.2553 8.95557 37.901C10.5785 39.5467 13.0449 39.9836 15.122 38.9933C17.199 38.003 18.4406 35.7982 18.226 33.4811L18.2541 33.5081C18.0948 31.5945 18.7755 29.707 20.1147 28.349C21.4539 26.9911 23.3153 26.3008 25.2025 26.4623V26.4623Z" fill="#FF7143"/>
<path d="M15.2817 23.4498C16.4177 22.2913 16.9848 20.6794 16.8286 19.0534L16.8567 19.0804C16.6973 17.1662 17.3784 15.2781 18.7183 13.9201C20.0581 12.562 21.9204 11.8721 23.8081 12.0346L23.78 12.0076C26.0643 12.2246 28.2375 10.9658 29.2135 8.86031C30.1896 6.75482 29.7587 4.25482 28.1364 2.60974C26.5141 0.964668 24.0486 0.527808 21.9722 1.5175C19.8958 2.50719 18.6544 4.71088 18.8684 7.02723L18.8418 7.00021C19.0011 8.91383 18.3203 10.8014 16.9812 12.1593C15.642 13.5172 13.7805 14.2075 11.8934 14.046L11.92 14.073C9.40888 13.8446 7.07266 15.3977 6.27773 17.8238C5.4828 20.25 6.43797 22.9119 8.58459 24.2527C10.7312 25.5936 13.5054 25.2611 15.2847 23.4498H15.2817Z" fill="#5454D4"/>
<path d="M61.1361 8.47876H65.5325V30.1729H61.1361V8.47876Z" fill="#19191B"/>
<path fill-rule="evenodd" clip-rule="evenodd" d="M72.7954 15.4456C69.8941 16.6746 68.0098 19.5561 68.0223 22.7444C68.0071 24.835 68.8215 26.844 70.2823 28.3194C71.7432 29.7947 73.7277 30.6125 75.7893 30.5887C78.9336 30.5886 81.7677 28.6663 82.968 25.7195C84.1683 22.7726 83.4981 19.3826 81.2703 17.1326C79.0425 14.8827 75.6967 14.2167 72.7954 15.4456ZM75.7269 19.4202C77.5768 19.3856 79.1087 20.8689 79.1599 22.7443C79.2098 23.6741 78.874 24.5826 78.2338 25.2501C77.5936 25.9175 76.7072 26.2831 75.7893 26.2582C73.9391 26.2583 72.4343 24.7466 72.4172 22.8706C72.4001 20.9945 73.877 19.4548 75.7269 19.4202Z" fill="#19191B"/>
<path fill-rule="evenodd" clip-rule="evenodd" d="M101.078 29.4239V15.3144L96.7988 15.3114V16.8274C95.7549 15.5321 94.1672 14.8154 92.5194 14.8956C88.4997 15.0241 85.3069 18.3655 85.3069 22.4435C85.3069 26.5214 88.4997 29.8628 92.5194 29.9913C94.1672 30.0715 95.7549 29.3548 96.7988 28.0595V29.4179C96.8724 30.3142 96.5403 31.1958 95.8963 31.8141C95.2522 32.4324 94.366 32.7205 93.4875 32.5971C92.0978 32.7409 90.7661 31.9948 90.1465 30.7253L86.3955 32.9243C87.863 35.3488 90.5432 36.739 93.3409 36.5267C97.2385 36.5267 101.078 34.4163 101.078 29.4239ZM94.7112 19.0116C96.0337 19.6164 96.8608 20.9759 96.8003 22.4457C96.8277 23.3948 96.458 24.3113 95.7826 24.969C95.1073 25.6267 94.1892 25.9641 93.2551 25.898C91.8043 25.8998 90.4982 25.0069 89.9557 23.6425C89.4133 22.278 89.7436 20.7163 90.79 19.6973C91.8364 18.6783 93.3887 18.4069 94.7112 19.0116Z" fill="#19191B"/>
<path fill-rule="evenodd" clip-rule="evenodd" d="M108.341 15.4456C105.44 16.6746 103.556 19.5561 103.568 22.7444C103.553 24.835 104.367 26.844 105.828 28.3194C107.289 29.7947 109.273 30.6125 111.335 30.5887C114.479 30.5886 117.313 28.6663 118.514 25.7195C119.714 22.7726 119.044 19.3826 116.816 17.1326C114.588 14.8827 111.243 14.2167 108.341 15.4456ZM111.273 19.4202C113.123 19.3856 114.654 20.8689 114.706 22.7443C114.756 23.6741 114.42 24.5826 113.78 25.2501C113.139 25.9175 112.253 26.2831 111.335 26.2582C109.485 26.2583 107.98 24.7466 107.963 22.8706C107.946 20.9945 109.423 19.4548 111.273 19.4202Z" fill="#19191B"/>
<path fill-rule="evenodd" clip-rule="evenodd" d="M122.781 8.86103C121.795 9.27504 121.152 10.2504 121.152 11.3322C121.167 12.8034 122.339 13.9924 123.79 14.007C124.857 14.007 125.819 13.3553 126.227 12.3558C126.635 11.3563 126.41 10.2058 125.655 9.44086C124.901 8.67587 123.766 8.44703 122.781 8.86103ZM125.994 15.3144H121.596L121.59 30.1744H125.994V15.3144Z" fill="#19191B"/>
<path fill-rule="evenodd" clip-rule="evenodd" d="M143.084 28.1435C144.398 26.6711 145.08 24.7279 144.977 22.7444C145.081 20.7604 144.399 18.8166 143.085 17.3439C141.77 15.8711 139.93 14.9909 137.973 14.8986C136.323 14.8073 134.72 15.4725 133.607 16.7103V15.3143H129.211V36.1169H133.607V28.7754C134.72 30.0141 136.323 30.6799 137.973 30.5887C139.929 30.4959 141.769 29.6158 143.084 28.1435ZM137.036 19.297C138.951 19.2645 140.533 20.8033 140.581 22.7443C140.647 23.7089 140.304 24.6564 139.639 25.3487C138.973 26.041 138.047 26.4123 137.095 26.3693C135.18 26.3695 133.623 24.8042 133.607 22.8627C133.591 20.9211 135.122 19.3295 137.036 19.297Z" fill="#19191B"/>
<path d="M158.544 25.715C158.544 29.1328 155.614 30.5888 152.45 30.5888C149.833 30.8291 147.337 29.428 146.148 27.0524L149.957 24.8534C150.274 25.9593 151.311 26.69 152.444 26.6066C153.498 26.6066 154.026 26.2793 154.026 25.6864C154.026 24.0503 146.816 24.9134 146.816 19.7724C146.816 16.5318 149.513 14.8987 152.561 14.8987C154.894 14.8238 157.083 16.0417 158.275 18.0778L154.524 20.1282C154.187 19.3325 153.414 18.8177 152.561 18.8208C151.798 18.8208 151.329 19.121 151.329 19.6524C151.335 21.347 158.544 20.2167 158.544 25.715Z" fill="#19191B"/>
<path d="M174.603 15.3143V30.1744H170.207V28.7769C169.178 30.0278 167.62 30.7022 166.018 30.5902C163.057 30.5902 160.541 28.4512 160.541 24.436V15.3143H164.937V23.7831C164.863 24.4994 165.103 25.2126 165.594 25.7331C166.085 26.2536 166.777 26.5286 167.486 26.4849C169.098 26.4849 170.211 25.5347 170.211 23.4243V15.3188L174.603 15.3143Z" fill="#19191B"/>
<path d="M199.812 21.0497V30.1728H195.416V21.4354C195.416 19.9494 194.713 18.9993 193.307 18.9993C191.841 18.9993 191.02 20.0395 191.02 21.7927V30.1728H186.625V21.4354C186.625 19.9494 185.922 18.9993 184.514 18.9993C183.048 18.9993 182.228 20.0395 182.228 21.7927V30.1728H177.832V15.3128H182.228V16.6787C183.154 15.4474 184.633 14.7765 186.155 14.897C187.686 14.8211 189.143 15.5653 189.994 16.8573C190.984 15.5067 192.589 14.7664 194.244 14.897C197.608 14.8985 199.812 17.3347 199.812 21.0497Z" fill="#19191B"/>
<path d="M203.531 15.2228C205.333 15.2228 206.793 13.7416 206.793 11.9146C206.793 10.0875 205.333 8.60632 203.531 8.60632C201.729 8.60632 200.268 10.0875 200.268 11.9146C200.268 13.7416 201.729 15.2228 203.531 15.2228Z" fill="#19191B"/>
</svg>
